<?xml version="1.0" encoding="utf-8"?>
<!-- Generator: Adobe Illustrator 27.5.0, SVG Export Plug-In . SVG Version: 6.00 Build 0)  -->
<svg version="1.1" xmlns="http://www.w3.org/2000/svg" xmlns:xlink="http://www.w3.org/1999/xlink" x="0px" y="0px"
	 viewBox="0 0 2200 2200" style="enable-background:new 0 0 2200 2200;" xml:space="preserve">
<g id="Background">
	<rect style="fill:#FFFFFF;" width="2200" height="2200"/>
</g>
<g id="Objects">
	<g>
		<g>
			<path d="M1795.243,767.625c-7.881,111.307-60.086,262.656-196.78,464.232c7.926,243.664-41.596,501.211-83.203,641.863
				c-14.532,49.153-45.565,123.816-105.684,123.816c-88.446,0-93.633-261.416-143.133-446.044
				c-19.831-73.936-124.967-73.936-144.799,0c-49.5,184.629-54.698,446.044-143.133,446.044
				c-60.131,0-91.152-74.663-105.695-123.816c-41.596-140.651-91.129-398.199-83.204-641.863
				c-136.694-201.576-188.888-352.925-196.769-464.232c-7.892-111.296,46.146-234.519,150.902-272.93
				c101.492-37.203,198.914-22.772,320.741,36.353c101.035,49.034,182.754,132.239,316.476,164.927
				c0,0-103.346-51.177-153.533-111.27c38.064-19.317,68.256-39.169,96.17-53.657c120.183-62.4,219.249-73.556,320.73-36.353
				C1749.097,533.106,1803.135,656.33,1795.243,767.625z"/>
		</g>
		<path d="M697.493,432.689c-127.475,22.506-145.719,40.75-168.225,168.225c-22.506-127.475-40.75-145.719-168.225-168.225
			c127.475-22.506,145.719-40.75,168.225-168.225C551.774,391.939,570.018,410.183,697.493,432.689z"/>
		<path d="M867.043,304.964c-77.671,13.713-88.787,24.829-102.5,102.5c-13.713-77.671-24.829-88.787-102.5-102.5
			c77.671-13.713,88.787-24.829,102.5-102.5C778.256,280.135,789.372,291.251,867.043,304.964z"/>
		<path d="M492.043,668.964c-43.571,7.693-49.807,13.929-57.5,57.5c-7.693-43.571-13.929-49.807-57.5-57.5
			c43.571-7.693,49.807-13.929,57.5-57.5C442.235,655.035,448.471,661.271,492.043,668.964z"/>
	</g>
</g>
</svg>
